<svg width="548" height="143" viewBox="0 0 548 143" fill="none" xmlns="http://www.w3.org/2000/svg">
<g clip-path="url(#clip0_5440_293)">
<path d="M126.065 98.287C124.277 93.3915 120.625 89.3995 115.905 87.18C111.184 84.9606 105.776 84.6933 100.859 86.4365C100.286 86.644 99.7409 86.9205 99.2352 87.2598L99.0353 87.3845C95.5244 84.2549 91.8017 81.3707 87.8937 78.7524C87.7269 78.6481 87.5682 78.5313 87.4191 78.4031C89.4925 77.1058 91.466 75.9082 93.3896 74.6109C99.7363 70.7715 105.464 65.9936 110.377 60.4402C114.518 55.4006 116.693 49.0345 116.5 42.518C116.307 36.0015 113.76 29.7749 109.328 24.9884C105.112 20.1914 99.2416 17.1557 92.8859 16.4854C86.5301 15.8151 80.1547 17.5593 75.0284 21.3708L74.3539 21.8199C74.1059 21.7303 73.8771 21.5949 73.6794 21.4207C69.3924 18.1905 64.1844 16.4122 58.8145 16.3448C53.4447 16.2775 48.1936 17.9248 43.8268 21.0465C39.261 24.2707 35.7887 28.8093 33.8738 34.0562C31.9589 39.3032 31.6924 45.0087 33.1099 50.4109C35.2583 58.7936 40.979 63.7833 46.6747 68.4486C50.9241 71.7745 55.3888 74.8165 60.0396 77.5548L61.2387 78.3033L60.889 78.5278L52.5952 84.715C52.5952 84.715 52.3204 84.9396 52.1705 85.0144C39.2553 78.9769 30.3869 86.3866 24.8661 92.499C21.9682 95.6674 20.2445 98.2371 20.4444 101.206C20.6442 104.175 22.9425 106.42 26.0402 108.99C27.155 110.158 28.6711 110.861 30.2838 110.958C31.8965 111.055 33.4863 110.539 34.7337 109.514C36.0893 108.57 37.0243 107.136 37.3413 105.516C37.6583 103.896 37.3324 102.216 36.4324 100.832C36.3281 100.636 36.2024 100.452 36.0577 100.283C37.4836 98.318 39.613 96.9776 42.0032 96.5406C42.8839 96.4215 43.7795 96.4792 44.6375 96.7106C45.4955 96.9419 46.2985 97.3422 46.9994 97.8878C47.7839 98.481 48.4357 99.2312 48.9132 100.09C49.3906 100.95 49.6833 101.899 49.7723 102.878C49.8501 104.054 49.6863 105.234 49.2911 106.345C48.8959 107.456 48.2776 108.475 47.4741 109.339L47.2492 109.589L46.0252 110.986C45.6975 110.853 45.3937 110.668 45.1258 110.437C44.5585 109.962 43.889 109.625 43.1696 109.452C42.4502 109.279 41.7004 109.275 40.979 109.439C40.0081 109.697 39.1051 110.164 38.3329 110.806C37.5607 111.447 36.9378 112.25 36.5073 113.156C34.209 117.822 37.2568 120.816 39.0054 122.637L39.9547 123.585C40.6895 124.533 41.6124 125.319 42.6655 125.894C43.7187 126.47 44.8795 126.821 46.0751 126.928C47.3425 126.903 48.5818 126.55 49.6724 125.905C54.8845 123.043 58.9191 118.437 61.0666 112.897C63.2141 107.357 63.3369 101.239 61.4136 95.6175C61.2887 95.2433 61.2637 95.0188 61.1888 94.9938L61.5885 94.5947C72.6302 84.6153 73.2547 84.6153 84.6711 93.447C85.1707 93.7963 85.6204 94.1955 86.0951 94.5947C86.8883 95.3 87.7225 95.9581 88.5932 96.5656C89.2427 96.9897 89.3426 97.2142 89.3426 97.2142C89.3212 97.5813 89.2189 97.9391 89.0428 98.2621C88.0561 100.515 87.5301 102.943 87.4958 105.402C87.4615 107.861 87.9195 110.303 88.843 112.583C89.7692 115.035 91.1766 117.278 92.9826 119.181C94.7886 121.083 96.9568 122.606 99.3601 123.66C101.664 124.743 104.162 125.354 106.706 125.456C109.251 125.559 111.79 125.152 114.174 124.258C116.63 123.368 118.885 121.998 120.806 120.229C122.727 118.46 124.277 116.327 125.366 113.955C126.607 111.29 127.255 108.387 127.264 105.447C127.287 103.009 126.881 100.585 126.065 98.287ZM49.1478 52.3568C47.1817 50.3178 45.9388 47.6914 45.6094 44.8798C45.28 42.0682 45.8824 39.2262 47.3242 36.789C48.4295 34.7792 50.057 33.1044 52.0354 31.9408C54.0138 30.7773 56.2698 30.1682 58.5657 30.1776C59.4038 30.1944 60.2391 30.2779 61.0639 30.4271C63.7004 30.9682 66.0971 32.3309 67.9087 34.3191C73.0549 39.5084 75.4031 39.5084 80.6491 34.3191C82.4318 32.4056 84.7574 31.0818 87.3144 30.525C89.8714 29.9682 92.5377 30.205 94.9562 31.2037C97.3747 32.2024 99.4299 33.9153 100.846 36.1129C102.263 38.3106 102.973 40.8881 102.882 43.5001C102.919 45.3046 102.576 47.0967 101.874 48.7601C101.173 50.4234 100.129 51.9208 98.8105 53.1552C91.7908 60.1657 83.472 65.0057 74.5787 70.1701L74.3539 70.2948L71.2562 68.4985C63.0624 63.7833 55.4181 59.1179 49.1478 52.3568ZM101.309 105.422C101.291 104.563 101.442 103.709 101.755 102.908C102.068 102.108 102.536 101.377 103.132 100.757C103.7 100.148 104.395 99.6712 105.167 99.3607C105.94 99.0502 106.772 98.9136 107.604 98.9606C108.452 98.9704 109.291 99.1474 110.071 99.4815C110.85 99.8156 111.557 100.3 112.148 100.908C112.74 101.515 113.206 102.233 113.52 103.021C113.833 103.808 113.987 104.65 113.974 105.497C113.942 107.253 113.225 108.927 111.976 110.163C110.809 111.33 109.23 111.993 107.579 112.009C106.734 111.989 105.9 111.803 105.127 111.461C104.354 111.12 103.656 110.629 103.073 110.017C102.491 109.405 102.035 108.684 101.732 107.895C101.429 107.107 101.285 106.266 101.309 105.422Z" fill="white"/>
<path d="M110.877 105.348C110.89 104.9 110.813 104.455 110.651 104.038C110.489 103.621 110.244 103.24 109.932 102.919C109.62 102.598 109.246 102.343 108.834 102.169C108.421 101.994 107.977 101.905 107.529 101.905C107.076 101.914 106.63 102.014 106.217 102.199C105.803 102.383 105.431 102.648 105.121 102.978C104.811 103.308 104.571 103.696 104.414 104.12C104.257 104.545 104.186 104.996 104.207 105.448C104.183 105.893 104.256 106.338 104.42 106.752C104.585 107.167 104.837 107.541 105.159 107.849C105.482 108.157 105.868 108.391 106.289 108.537C106.711 108.682 107.16 108.735 107.604 108.691C108.049 108.726 108.497 108.663 108.915 108.507C109.333 108.35 109.712 108.103 110.024 107.784C110.336 107.465 110.574 107.082 110.722 106.661C110.869 106.24 110.922 105.792 110.877 105.348Z" fill="white"/>
<path d="M191.353 82.0915L153.472 28.3651H140.241V116.563H157.645V62.6428L195.493 116.563H208.756V28.3651H191.353V82.0915Z" fill="white"/>
<path d="M254.434 51.6907C249.984 51.5572 245.554 52.3499 241.427 54.0185C237.301 55.6871 233.567 58.195 230.463 61.3828C227.372 64.4996 224.949 68.2124 223.342 72.2948C221.734 76.3772 220.976 80.7438 221.114 85.1284C220.984 89.5329 221.759 93.9173 223.389 98.012C225.019 102.107 227.47 105.825 230.592 108.939C233.911 112.139 237.85 114.63 242.166 116.257C246.483 117.885 251.086 118.616 255.695 118.404C261.05 118.698 266.391 117.614 271.206 115.255C276.02 112.896 280.148 109.342 283.192 104.932L270.058 97.3727C268.39 99.489 266.232 101.168 263.769 102.266C261.306 103.363 258.613 103.846 255.922 103.673C246.217 103.673 240.329 99.6988 238.162 91.8159H285.716C286.117 89.6091 286.323 87.3713 286.33 85.1284C286.582 76.3391 283.35 67.8057 277.337 61.3828C274.43 58.2331 270.883 55.7393 266.933 54.0679C262.983 52.3965 258.722 51.5861 254.434 51.6907ZM237.903 79.1516C238.616 75.4472 240.622 72.1157 243.564 69.7503C246.723 67.4871 250.55 66.3493 254.434 66.5196C257.996 66.5009 261.469 67.6343 264.333 69.7503C267.416 72.1271 269.466 75.5974 270.058 79.4424L237.903 79.1516Z" fill="white"/>
<path d="M317.612 32.6943L294.967 50.5277L291.732 53.5645H290.471V69.2011H301.437V95.402C301.437 104.017 303.734 110.026 308.327 113.429C312.921 116.66 320.782 117.823 331.975 116.66V101.831C329.367 101.974 326.754 101.974 324.146 101.831C322.398 101.842 320.702 101.236 319.359 100.119C318.761 99.4834 318.305 98.7287 318.021 97.9046C317.736 97.0804 317.63 96.2055 317.709 95.3373V69.2011H331.975V53.5645H317.709L317.612 32.6943Z" fill="white"/>
<path d="M359.634 24.5852H343.362V116.563H359.634V24.5852Z" fill="white"/>
<path d="M382.601 25.8452C381.289 25.835 379.989 26.1 378.785 26.6232C377.581 27.1463 376.501 27.9158 375.614 28.882C374.666 29.7932 373.913 30.8873 373.401 32.0981C372.89 33.3088 372.63 34.6108 372.638 35.925C372.68 38.551 373.743 41.0579 375.602 42.915C377.462 44.7721 379.972 45.8339 382.601 45.8755C385.251 45.9018 387.804 44.8867 389.711 43.0492C391.617 41.2117 392.724 38.6993 392.791 36.0542C392.778 34.744 392.499 33.45 391.971 32.2506C391.443 31.0512 390.676 29.9712 389.718 29.0759C388.829 28.0645 387.735 27.2535 386.508 26.6965C385.281 26.1395 383.949 25.8494 382.601 25.8452Z" fill="white"/>
<path d="M390.786 53.5645H374.514V116.563H390.786V53.5645Z" fill="white"/>
<path d="M417.409 32.662C412.449 37.2711 409.969 44.034 409.969 52.9507V53.5645H400.879V69.2011H409.969V116.563H426.144V69.2011H439.536V53.5645H426.144V52.9507C426.144 45.1324 430.608 41.5787 439.536 42.2248V26.6206C429.767 26.1037 422.391 28.1175 417.409 32.662Z" fill="white"/>
<path d="M506.629 85.0637C506.868 76.2897 503.624 67.777 497.603 61.3828C494.696 58.2331 491.149 55.7393 487.199 54.0679C483.249 52.3965 478.988 51.5861 474.7 51.6907C470.25 51.5572 465.82 52.3499 461.694 54.0185C457.567 55.6871 453.833 58.195 450.729 61.3828C447.634 64.4866 445.204 68.1864 443.586 72.2573C441.968 76.3283 441.195 80.6854 441.315 85.0637C441.215 89.4845 442.025 93.8788 443.694 97.9744C445.364 102.07 447.857 105.78 451.02 108.874C454.341 112.072 458.28 114.56 462.596 116.187C466.912 117.815 471.515 118.547 476.123 118.34C481.478 118.637 486.82 117.554 491.636 115.195C496.451 112.835 500.578 109.279 503.62 104.868L490.519 97.3081C488.847 99.4202 486.688 101.096 484.226 102.194C481.764 103.291 479.073 103.776 476.382 103.608C466.677 103.608 460.757 99.6342 458.59 91.7513H506.014C506.414 89.5444 506.62 87.3066 506.629 85.0637ZM458.105 79.1516C458.871 75.4205 460.947 72.0859 463.96 69.7503C467.106 67.4872 470.924 66.3491 474.797 66.5196C478.359 66.5009 481.832 67.6343 484.696 69.7503C487.789 72.1237 489.851 75.5936 490.454 79.4423L458.105 79.1516Z" fill="white"/>
</g>
<path d="M537.021 93.9717C535.708 93.9615 534.408 94.2266 533.205 94.7497C532.001 95.2728 530.921 96.0423 530.033 97.0086C529.085 97.9197 528.332 99.0139 527.821 100.225C527.309 101.435 527.049 102.737 527.057 104.051C527.099 106.678 528.162 109.184 530.022 111.042C531.881 112.899 534.391 113.96 537.021 114.002C539.67 114.028 542.224 113.013 544.13 111.176C546.037 109.338 547.143 106.826 547.211 104.181C547.198 102.87 546.918 101.577 546.39 100.377C545.862 99.1777 545.096 98.0977 544.138 97.2024C543.248 96.191 542.154 95.38 540.927 94.823C539.7 94.2661 538.369 93.9759 537.021 93.9717Z" fill="white"/>
<defs>
<clipPath id="clip0_5440_293">
<rect width="506.629" height="143" fill="white"/>
</clipPath>
</defs>
</svg>
