<svg width="376" height="376" viewBox="0 0 376 376" fill="none" xmlns="http://www.w3.org/2000/svg">
<circle cx="188" cy="188" r="188" fill="#8A3FFC"/>
<path d="M274.033 231.989C271.101 223.963 265.114 217.418 257.374 213.779C249.634 210.14 240.768 209.702 232.706 212.56C231.767 212.9 230.873 213.353 230.044 213.91L229.716 214.114C223.96 208.983 217.856 204.254 211.449 199.961C211.175 199.79 210.915 199.599 210.671 199.389C214.07 197.262 217.306 195.298 220.46 193.171C230.865 186.876 240.256 179.043 248.311 169.937C255.101 161.675 258.667 151.237 258.351 140.553C258.034 129.869 253.857 119.66 246.591 111.812C239.678 103.947 230.054 98.9703 219.634 97.8712C209.213 96.7722 198.76 99.6318 190.355 105.881L189.25 106.617C188.843 106.471 188.468 106.249 188.144 105.963C181.115 100.667 172.576 97.7511 163.772 97.6408C154.968 97.5304 146.359 100.231 139.199 105.349C131.713 110.636 126.02 118.077 122.88 126.68C119.741 135.282 119.304 144.637 121.628 153.494C125.15 167.238 134.53 175.419 143.868 183.068C150.835 188.521 158.155 193.508 165.781 197.998L167.747 199.225L167.173 199.593L153.575 209.737C153.575 209.737 153.125 210.105 152.879 210.228C131.704 200.329 117.163 212.478 108.112 222.5C103.361 227.694 100.534 231.907 100.862 236.775C101.19 241.643 104.958 245.324 110.037 249.537C111.865 251.452 114.35 252.605 116.994 252.764C119.639 252.924 122.245 252.078 124.29 250.396C126.513 248.848 128.046 246.498 128.566 243.841C129.085 241.185 128.551 238.432 127.075 236.162C126.904 235.84 126.698 235.538 126.461 235.262C128.799 232.04 132.29 229.843 136.209 229.126C137.653 228.931 139.121 229.025 140.528 229.405C141.935 229.784 143.251 230.44 144.401 231.335C145.687 232.307 146.755 233.537 147.538 234.946C148.321 236.355 148.801 237.911 148.947 239.516C149.074 241.445 148.806 243.38 148.158 245.201C147.51 247.023 146.496 248.693 145.179 250.11L144.81 250.519L142.803 252.81C142.266 252.592 141.768 252.288 141.329 251.91C140.399 251.132 139.301 250.579 138.121 250.295C136.942 250.011 135.713 250.004 134.53 250.274C132.938 250.697 131.457 251.462 130.191 252.514C128.925 253.567 127.904 254.882 127.198 256.368C123.43 264.017 128.427 268.926 131.294 271.912L132.85 273.466C134.055 275.021 135.568 276.31 137.295 277.253C139.022 278.196 140.925 278.773 142.885 278.948C144.963 278.906 146.995 278.328 148.783 277.27C157.328 272.577 163.943 265.026 167.464 255.943C170.985 246.86 171.187 236.829 168.033 227.613C167.829 226.999 167.788 226.631 167.665 226.59L168.32 225.935C186.423 209.574 187.447 209.574 206.165 224.054C206.984 224.627 207.722 225.281 208.5 225.935C209.801 227.092 211.168 228.171 212.596 229.167C213.661 229.862 213.824 230.23 213.824 230.23C213.789 230.832 213.622 231.419 213.333 231.948C211.715 235.643 210.853 239.623 210.796 243.655C210.74 247.687 211.491 251.689 213.005 255.428C214.524 259.449 216.831 263.127 219.792 266.246C222.753 269.364 226.308 271.861 230.249 273.589C234.026 275.365 238.122 276.366 242.293 276.535C246.465 276.704 250.628 276.036 254.537 274.571C258.564 273.11 262.26 270.865 265.41 267.964C268.56 265.064 271.101 261.567 272.886 257.677C274.922 253.308 275.984 248.549 275.999 243.729C276.036 239.731 275.37 235.758 274.033 231.989ZM147.923 156.684C144.699 153.341 142.662 149.035 142.122 144.425C141.582 139.816 142.569 135.156 144.933 131.16C146.745 127.865 149.414 125.119 152.657 123.211C155.901 121.304 159.6 120.305 163.364 120.32C164.738 120.348 166.108 120.485 167.46 120.729C171.783 121.617 175.712 123.851 178.682 127.11C187.12 135.619 190.97 135.619 199.571 127.11C202.494 123.973 206.307 121.803 210.499 120.89C214.691 119.977 219.063 120.365 223.028 122.003C226.994 123.64 230.363 126.448 232.686 130.052C235.008 133.655 236.173 137.881 236.024 142.163C236.084 145.122 235.521 148.06 234.371 150.787C233.221 153.514 231.509 155.97 229.348 157.993C217.838 169.487 204.199 177.423 189.618 185.89L189.25 186.095L184.171 183.149C170.737 175.419 158.203 167.769 147.923 156.684ZM233.443 243.688C233.414 242.279 233.663 240.879 234.176 239.566C234.689 238.254 235.456 237.055 236.433 236.039C237.364 235.04 238.503 234.259 239.77 233.75C241.037 233.241 242.401 233.017 243.765 233.094C245.156 233.11 246.53 233.4 247.809 233.948C249.088 234.495 250.245 235.29 251.216 236.286C252.186 237.281 252.95 238.459 253.464 239.75C253.977 241.041 254.231 242.421 254.209 243.811C254.157 246.689 252.981 249.434 250.932 251.46C249.02 253.374 246.431 254.461 243.724 254.487C242.338 254.455 240.972 254.15 239.704 253.59C238.436 253.029 237.292 252.224 236.337 251.221C235.382 250.217 234.634 249.035 234.138 247.743C233.641 246.45 233.405 245.072 233.443 243.688Z" fill="white"/>
<path d="M249.131 243.566C249.152 242.832 249.027 242.102 248.761 241.418C248.495 240.734 248.094 240.11 247.582 239.584C247.07 239.057 246.458 238.639 245.781 238.353C245.104 238.068 244.377 237.921 243.642 237.921C242.9 237.937 242.168 238.1 241.49 238.402C240.812 238.704 240.202 239.139 239.694 239.68C239.186 240.221 238.792 240.858 238.535 241.554C238.277 242.249 238.162 242.989 238.195 243.729C238.156 244.459 238.275 245.189 238.545 245.868C238.814 246.548 239.228 247.161 239.757 247.666C240.286 248.171 240.918 248.556 241.61 248.794C242.302 249.033 243.037 249.119 243.765 249.047C244.495 249.105 245.229 249.002 245.914 248.745C246.6 248.488 247.221 248.084 247.733 247.561C248.244 247.038 248.635 246.409 248.877 245.719C249.118 245.028 249.205 244.293 249.131 243.566Z" fill="white"/>
</svg>
